<svg width="288" height="16" viewBox="0 0 288 16" fill="none" xmlns="http://www.w3.org/2000/svg">
<path d="M31.596 8.136C31.596 9.064 31.66 9.78 31.788 10.284C31.924 10.788 32.1 11.136 32.316 11.328C32.532 11.52 32.764 11.616 33.012 11.616C33.252 11.616 33.476 11.52 33.684 11.328C33.9 11.128 34.072 10.776 34.2 10.272C34.336 9.768 34.404 9.056 34.404 8.136C34.404 7.2 34.336 6.48 34.2 5.976C34.072 5.472 33.9 5.124 33.684 4.932C33.476 4.732 33.252 4.632 33.012 4.632C32.828 4.632 32.648 4.684 32.472 4.788C32.304 4.892 32.152 5.072 32.016 5.328C31.888 5.584 31.784 5.94 31.704 6.396C31.632 6.852 31.596 7.432 31.596 8.136ZM33.012 4.092C33.436 4.092 33.836 4.224 34.212 4.488C34.596 4.744 34.908 5.168 35.148 5.76C35.396 6.352 35.52 7.144 35.52 8.136C35.52 9.12 35.396 9.908 35.148 10.5C34.908 11.084 34.596 11.508 34.212 11.772C33.836 12.028 33.436 12.156 33.012 12.156C32.588 12.156 32.18 12.028 31.788 11.772C31.404 11.508 31.092 11.084 30.852 10.5C30.612 9.908 30.492 9.12 30.492 8.136C30.492 7.144 30.612 6.352 30.852 5.76C31.092 5.168 31.404 4.744 31.788 4.488C32.18 4.224 32.588 4.092 33.012 4.092ZM39.516 8.136C39.516 9.064 39.58 9.78 39.708 10.284C39.844 10.788 40.02 11.136 40.236 11.328C40.452 11.52 40.684 11.616 40.932 11.616C41.172 11.616 41.396 11.52 41.604 11.328C41.82 11.128 41.992 10.776 42.12 10.272C42.256 9.768 42.324 9.056 42.324 8.136C42.324 7.2 42.256 6.48 42.12 5.976C41.992 5.472 41.82 5.124 41.604 4.932C41.396 4.732 41.172 4.632 40.932 4.632C40.748 4.632 40.568 4.684 40.392 4.788C40.224 4.892 40.072 5.072 39.936 5.328C39.808 5.584 39.704 5.94 39.624 6.396C39.552 6.852 39.516 7.432 39.516 8.136ZM40.932 4.092C41.356 4.092 41.756 4.224 42.132 4.488C42.516 4.744 42.828 5.168 43.068 5.76C43.316 6.352 43.44 7.144 43.44 8.136C43.44 9.12 43.316 9.908 43.068 10.5C42.828 11.084 42.516 11.508 42.132 11.772C41.756 12.028 41.356 12.156 40.932 12.156C40.508 12.156 40.1 12.028 39.708 11.772C39.324 11.508 39.012 11.084 38.772 10.5C38.532 9.908 38.412 9.12 38.412 8.136C38.412 7.144 38.532 6.352 38.772 5.76C39.012 5.168 39.324 4.744 39.708 4.488C40.1 4.224 40.508 4.092 40.932 4.092ZM47.64 7.8C47.4 7.8 47.196 7.716 47.028 7.548C46.868 7.38 46.788 7.18 46.788 6.948C46.788 6.708 46.868 6.504 47.028 6.336C47.196 6.168 47.4 6.084 47.64 6.084C47.88 6.084 48.08 6.168 48.24 6.336C48.408 6.504 48.492 6.708 48.492 6.948C48.492 7.18 48.408 7.38 48.24 7.548C48.08 7.716 47.88 7.8 47.64 7.8ZM47.64 12.156C47.4 12.156 47.196 12.072 47.028 11.904C46.868 11.736 46.788 11.536 46.788 11.304C46.788 11.064 46.868 10.86 47.028 10.692C47.196 10.524 47.4 10.44 47.64 10.44C47.88 10.44 48.08 10.524 48.24 10.692C48.408 10.86 48.492 11.064 48.492 11.304C48.492 11.536 48.408 11.736 48.24 11.904C48.08 12.072 47.88 12.156 47.64 12.156ZM52.9537 8.136C52.9537 9.064 53.0177 9.78 53.1457 10.284C53.2817 10.788 53.4577 11.136 53.6737 11.328C53.8897 11.52 54.1217 11.616 54.3697 11.616C54.6097 11.616 54.8337 11.52 55.0417 11.328C55.2577 11.128 55.4297 10.776 55.5577 10.272C55.6937 9.768 55.7617 9.056 55.7617 8.136C55.7617 7.2 55.6937 6.48 55.5577 5.976C55.4297 5.472 55.2577 5.124 55.0417 4.932C54.8337 4.732 54.6097 4.632 54.3697 4.632C54.1857 4.632 54.0057 4.684 53.8297 4.788C53.6617 4.892 53.5097 5.072 53.3737 5.328C53.2457 5.584 53.1417 5.94 53.0617 6.396C52.9897 6.852 52.9537 7.432 52.9537 8.136ZM54.3697 4.092C54.7937 4.092 55.1937 4.224 55.5697 4.488C55.9537 4.744 56.2657 5.168 56.5057 5.76C56.7537 6.352 56.8777 7.144 56.8777 8.136C56.8777 9.12 56.7537 9.908 56.5057 10.5C56.2657 11.084 55.9537 11.508 55.5697 11.772C55.1937 12.028 54.7937 12.156 54.3697 12.156C53.9457 12.156 53.5377 12.028 53.1457 11.772C52.7617 11.508 52.4497 11.084 52.2097 10.5C51.9697 9.908 51.8497 9.12 51.8497 8.136C51.8497 7.144 51.9697 6.352 52.2097 5.76C52.4497 5.168 52.7617 4.744 53.1457 4.488C53.5377 4.224 53.9457 4.092 54.3697 4.092ZM60.8737 8.136C60.8737 9.064 60.9377 9.78 61.0657 10.284C61.2017 10.788 61.3777 11.136 61.5937 11.328C61.8097 11.52 62.0417 11.616 62.2897 11.616C62.5297 11.616 62.7537 11.52 62.9617 11.328C63.1777 11.128 63.3497 10.776 63.4777 10.272C63.6137 9.768 63.6817 9.056 63.6817 8.136C63.6817 7.2 63.6137 6.48 63.4777 5.976C63.3497 5.472 63.1777 5.124 62.9617 4.932C62.7537 4.732 62.5297 4.632 62.2897 4.632C62.1057 4.632 61.9257 4.684 61.7497 4.788C61.5817 4.892 61.4297 5.072 61.2937 5.328C61.1657 5.584 61.0617 5.94 60.9817 6.396C60.9097 6.852 60.8737 7.432 60.8737 8.136ZM62.2897 4.092C62.7137 4.092 63.1137 4.224 63.4897 4.488C63.8737 4.744 64.1857 5.168 64.4257 5.76C64.6737 6.352 64.7977 7.144 64.7977 8.136C64.7977 9.12 64.6737 9.908 64.4257 10.5C64.1857 11.084 63.8737 11.508 63.4897 11.772C63.1137 12.028 62.7137 12.156 62.2897 12.156C61.8657 12.156 61.4577 12.028 61.0657 11.772C60.6817 11.508 60.3697 11.084 60.1297 10.5C59.8897 9.908 59.7697 9.12 59.7697 8.136C59.7697 7.144 59.8897 6.352 60.1297 5.76C60.3697 5.168 60.6817 4.744 61.0657 4.488C61.4577 4.224 61.8657 4.092 62.2897 4.092Z" fill="#555555"/>
<path d="M227.596 8.136C227.596 9.064 227.66 9.78 227.788 10.284C227.924 10.788 228.1 11.136 228.316 11.328C228.532 11.52 228.764 11.616 229.012 11.616C229.252 11.616 229.476 11.52 229.684 11.328C229.9 11.128 230.072 10.776 230.2 10.272C230.336 9.768 230.404 9.056 230.404 8.136C230.404 7.2 230.336 6.48 230.2 5.976C230.072 5.472 229.9 5.124 229.684 4.932C229.476 4.732 229.252 4.632 229.012 4.632C228.828 4.632 228.648 4.684 228.472 4.788C228.304 4.892 228.152 5.072 228.016 5.328C227.888 5.584 227.784 5.94 227.704 6.396C227.632 6.852 227.596 7.432 227.596 8.136ZM229.012 4.092C229.436 4.092 229.836 4.224 230.212 4.488C230.596 4.744 230.908 5.168 231.148 5.76C231.396 6.352 231.52 7.144 231.52 8.136C231.52 9.12 231.396 9.908 231.148 10.5C230.908 11.084 230.596 11.508 230.212 11.772C229.836 12.028 229.436 12.156 229.012 12.156C228.588 12.156 228.18 12.028 227.788 11.772C227.404 11.508 227.092 11.084 226.852 10.5C226.612 9.908 226.492 9.12 226.492 8.136C226.492 7.144 226.612 6.352 226.852 5.76C227.092 5.168 227.404 4.744 227.788 4.488C228.18 4.224 228.588 4.092 229.012 4.092ZM234.508 12V11.22C234.828 10.908 235.136 10.6 235.432 10.296C235.736 9.984 236.016 9.692 236.272 9.42C236.872 8.788 237.312 8.216 237.592 7.704C237.872 7.192 238.012 6.704 238.012 6.24C238.012 5.744 237.88 5.352 237.616 5.064C237.36 4.776 237.012 4.632 236.572 4.632C236.492 4.632 236.4 4.636 236.296 4.644C236.2 4.652 236.096 4.668 235.984 4.692L235.756 5.52C235.676 5.816 235.58 6.028 235.468 6.156C235.364 6.276 235.228 6.336 235.06 6.336C234.796 6.336 234.592 6.208 234.448 5.952C234.496 5.528 234.636 5.18 234.868 4.908C235.1 4.628 235.392 4.424 235.744 4.296C236.096 4.16 236.472 4.092 236.872 4.092C237.648 4.092 238.212 4.284 238.564 4.668C238.916 5.044 239.092 5.532 239.092 6.132C239.092 6.484 239.02 6.828 238.876 7.164C238.74 7.492 238.5 7.864 238.156 8.28C237.812 8.688 237.332 9.188 236.716 9.78C236.556 9.94 236.36 10.128 236.128 10.344C235.904 10.56 235.668 10.784 235.42 11.016H239.44V12H234.508ZM243.64 7.8C243.4 7.8 243.196 7.716 243.028 7.548C242.868 7.38 242.788 7.18 242.788 6.948C242.788 6.708 242.868 6.504 243.028 6.336C243.196 6.168 243.4 6.084 243.64 6.084C243.88 6.084 244.08 6.168 244.24 6.336C244.408 6.504 244.492 6.708 244.492 6.948C244.492 7.18 244.408 7.38 244.24 7.548C244.08 7.716 243.88 7.8 243.64 7.8ZM243.64 12.156C243.4 12.156 243.196 12.072 243.028 11.904C242.868 11.736 242.788 11.536 242.788 11.304C242.788 11.064 242.868 10.86 243.028 10.692C243.196 10.524 243.4 10.44 243.64 10.44C243.88 10.44 244.08 10.524 244.24 10.692C244.408 10.86 244.492 11.064 244.492 11.304C244.492 11.536 244.408 11.736 244.24 11.904C244.08 12.072 243.88 12.156 243.64 12.156ZM253.166 9.684H251.906V12H250.91V9.684H247.646V9.048L251.21 4.14H251.906V8.928H253.166V9.684ZM248.366 8.928H250.91V5.388L248.366 8.928ZM260.774 9.588C260.774 10.1 260.658 10.548 260.426 10.932C260.194 11.316 259.866 11.616 259.442 11.832C259.026 12.048 258.538 12.156 257.978 12.156C256.738 12.156 255.99 11.592 255.734 10.464C255.838 10.192 256.042 10.056 256.346 10.056C256.53 10.056 256.67 10.112 256.766 10.224C256.87 10.336 256.962 10.552 257.042 10.872L257.21 11.52C257.33 11.552 257.446 11.576 257.558 11.592C257.678 11.608 257.79 11.616 257.894 11.616C258.486 11.616 258.934 11.444 259.238 11.1C259.542 10.748 259.694 10.284 259.694 9.708C259.694 9.108 259.526 8.652 259.19 8.34C258.854 8.02 258.398 7.86 257.822 7.86C257.478 7.86 257.11 7.904 256.718 7.992L256.382 7.896L256.634 4.248H260.558V5.232H257.162L257.018 7.272C257.378 7.176 257.754 7.128 258.146 7.128C258.93 7.128 259.562 7.34 260.042 7.764C260.53 8.18 260.774 8.788 260.774 9.588Z" fill="#555555"/>
<path d="M14.02 7.83109V8.18796C14.019 8.5277 13.84 8.84207 13.5484 9.01641L2.14123 15.6568C1.45298 16.0646 1.09611 16.0646 0.790217 15.8862L0.471581 15.7078C0.187606 15.5382 0.00979338 15.2354 0 14.9048V1.11424C0.00103072 0.774497 0.179979 0.460128 0.471581 0.285787L0.790217 0.107351C1.09611 -0.0710855 1.45298 -0.0710855 2.34516 0.451477L13.5484 7.00263C13.84 7.17697 14.019 7.49134 14.02 7.83109Z" fill="#222222"/>
<rect x="70" y="5" width="146" height="7" rx="2" fill="#EAEAEE"/>
<rect x="70" y="5" width="21" height="7" rx="2" fill="#222222"/>
<path fill-rule="evenodd" clip-rule="evenodd" d="M280.759 1.875V14.125C280.759 14.6082 280.367 15 279.883 15H279.366C279.137 14.999 278.916 14.9079 278.753 14.7463L275.399 11.395C274.906 10.9026 274.238 10.6256 273.542 10.625C272.69 10.625 272 9.93552 272 9.085V6.915C272 6.06448 272.69 5.375 273.542 5.375C274.238 5.37439 274.906 5.09742 275.399 4.605L278.753 1.25375C278.916 1.0921 279.137 1.00097 279.366 1H279.883C280.367 1 280.759 1.39175 280.759 1.875ZM286.014 3.38873C285.93 3.30353 285.818 3.25085 285.699 3.23998C285.577 3.23688 285.46 3.28442 285.375 3.37123L284.753 3.99248C284.597 4.16028 284.597 4.41968 284.753 4.58748C286.435 6.55216 286.435 9.4478 284.753 11.4125C284.597 11.5803 284.597 11.8397 284.753 12.0075L285.375 12.6287C285.46 12.7155 285.577 12.7631 285.699 12.76C285.819 12.7507 285.931 12.6977 286.014 12.6112C288.328 9.97149 288.328 6.02847 286.014 3.38873ZM282.905 5.85629C282.996 5.76765 283.12 5.72021 283.247 5.72504C283.373 5.73997 283.489 5.80257 283.571 5.90004C284.505 7.14448 284.505 8.85559 283.571 10.1C283.491 10.1981 283.373 10.2583 283.247 10.2663C283.121 10.2745 282.997 10.2301 282.905 10.1438L282.283 9.51379C282.134 9.36811 282.108 9.13741 282.222 8.96254C282.607 8.3785 282.607 7.62157 282.222 7.03754C282.108 6.86267 282.134 6.63197 282.283 6.48629L282.905 5.85629Z" fill="#222222"/>
</svg>
