<svg width="670" height="16" viewBox="0 0 670 16" fill="none" xmlns="http://www.w3.org/2000/svg">
<path d="M27.596 8.136C27.596 9.064 27.66 9.78 27.788 10.284C27.924 10.788 28.1 11.136 28.316 11.328C28.532 11.52 28.764 11.616 29.012 11.616C29.252 11.616 29.476 11.52 29.684 11.328C29.9 11.128 30.072 10.776 30.2 10.272C30.336 9.768 30.404 9.056 30.404 8.136C30.404 7.2 30.336 6.48 30.2 5.976C30.072 5.472 29.9 5.124 29.684 4.932C29.476 4.732 29.252 4.632 29.012 4.632C28.828 4.632 28.648 4.684 28.472 4.788C28.304 4.892 28.152 5.072 28.016 5.328C27.888 5.584 27.784 5.94 27.704 6.396C27.632 6.852 27.596 7.432 27.596 8.136ZM29.012 4.092C29.436 4.092 29.836 4.224 30.212 4.488C30.596 4.744 30.908 5.168 31.148 5.76C31.396 6.352 31.52 7.144 31.52 8.136C31.52 9.12 31.396 9.908 31.148 10.5C30.908 11.084 30.596 11.508 30.212 11.772C29.836 12.028 29.436 12.156 29.012 12.156C28.588 12.156 28.18 12.028 27.788 11.772C27.404 11.508 27.092 11.084 26.852 10.5C26.612 9.908 26.492 9.12 26.492 8.136C26.492 7.144 26.612 6.352 26.852 5.76C27.092 5.168 27.404 4.744 27.788 4.488C28.18 4.224 28.588 4.092 29.012 4.092ZM35.516 8.136C35.516 9.064 35.58 9.78 35.708 10.284C35.844 10.788 36.02 11.136 36.236 11.328C36.452 11.52 36.684 11.616 36.932 11.616C37.172 11.616 37.396 11.52 37.604 11.328C37.82 11.128 37.992 10.776 38.12 10.272C38.256 9.768 38.324 9.056 38.324 8.136C38.324 7.2 38.256 6.48 38.12 5.976C37.992 5.472 37.82 5.124 37.604 4.932C37.396 4.732 37.172 4.632 36.932 4.632C36.748 4.632 36.568 4.684 36.392 4.788C36.224 4.892 36.072 5.072 35.936 5.328C35.808 5.584 35.704 5.94 35.624 6.396C35.552 6.852 35.516 7.432 35.516 8.136ZM36.932 4.092C37.356 4.092 37.756 4.224 38.132 4.488C38.516 4.744 38.828 5.168 39.068 5.76C39.316 6.352 39.44 7.144 39.44 8.136C39.44 9.12 39.316 9.908 39.068 10.5C38.828 11.084 38.516 11.508 38.132 11.772C37.756 12.028 37.356 12.156 36.932 12.156C36.508 12.156 36.1 12.028 35.708 11.772C35.324 11.508 35.012 11.084 34.772 10.5C34.532 9.908 34.412 9.12 34.412 8.136C34.412 7.144 34.532 6.352 34.772 5.76C35.012 5.168 35.324 4.744 35.708 4.488C36.1 4.224 36.508 4.092 36.932 4.092ZM43.64 7.8C43.4 7.8 43.196 7.716 43.028 7.548C42.868 7.38 42.788 7.18 42.788 6.948C42.788 6.708 42.868 6.504 43.028 6.336C43.196 6.168 43.4 6.084 43.64 6.084C43.88 6.084 44.08 6.168 44.24 6.336C44.408 6.504 44.492 6.708 44.492 6.948C44.492 7.18 44.408 7.38 44.24 7.548C44.08 7.716 43.88 7.8 43.64 7.8ZM43.64 12.156C43.4 12.156 43.196 12.072 43.028 11.904C42.868 11.736 42.788 11.536 42.788 11.304C42.788 11.064 42.868 10.86 43.028 10.692C43.196 10.524 43.4 10.44 43.64 10.44C43.88 10.44 44.08 10.524 44.24 10.692C44.408 10.86 44.492 11.064 44.492 11.304C44.492 11.536 44.408 11.736 44.24 11.904C44.08 12.072 43.88 12.156 43.64 12.156ZM48.9537 8.136C48.9537 9.064 49.0177 9.78 49.1457 10.284C49.2817 10.788 49.4577 11.136 49.6737 11.328C49.8897 11.52 50.1217 11.616 50.3697 11.616C50.6097 11.616 50.8337 11.52 51.0417 11.328C51.2577 11.128 51.4297 10.776 51.5577 10.272C51.6937 9.768 51.7617 9.056 51.7617 8.136C51.7617 7.2 51.6937 6.48 51.5577 5.976C51.4297 5.472 51.2577 5.124 51.0417 4.932C50.8337 4.732 50.6097 4.632 50.3697 4.632C50.1857 4.632 50.0057 4.684 49.8297 4.788C49.6617 4.892 49.5097 5.072 49.3737 5.328C49.2457 5.584 49.1417 5.94 49.0617 6.396C48.9897 6.852 48.9537 7.432 48.9537 8.136ZM50.3697 4.092C50.7937 4.092 51.1937 4.224 51.5697 4.488C51.9537 4.744 52.2657 5.168 52.5057 5.76C52.7537 6.352 52.8777 7.144 52.8777 8.136C52.8777 9.12 52.7537 9.908 52.5057 10.5C52.2657 11.084 51.9537 11.508 51.5697 11.772C51.1937 12.028 50.7937 12.156 50.3697 12.156C49.9457 12.156 49.5377 12.028 49.1457 11.772C48.7617 11.508 48.4497 11.084 48.2097 10.5C47.9697 9.908 47.8497 9.12 47.8497 8.136C47.8497 7.144 47.9697 6.352 48.2097 5.76C48.4497 5.168 48.7617 4.744 49.1457 4.488C49.5377 4.224 49.9457 4.092 50.3697 4.092ZM56.8737 8.136C56.8737 9.064 56.9377 9.78 57.0657 10.284C57.2017 10.788 57.3777 11.136 57.5937 11.328C57.8097 11.52 58.0417 11.616 58.2897 11.616C58.5297 11.616 58.7537 11.52 58.9617 11.328C59.1777 11.128 59.3497 10.776 59.4777 10.272C59.6137 9.768 59.6817 9.056 59.6817 8.136C59.6817 7.2 59.6137 6.48 59.4777 5.976C59.3497 5.472 59.1777 5.124 58.9617 4.932C58.7537 4.732 58.5297 4.632 58.2897 4.632C58.1057 4.632 57.9257 4.684 57.7497 4.788C57.5817 4.892 57.4297 5.072 57.2937 5.328C57.1657 5.584 57.0617 5.94 56.9817 6.396C56.9097 6.852 56.8737 7.432 56.8737 8.136ZM58.2897 4.092C58.7137 4.092 59.1137 4.224 59.4897 4.488C59.8737 4.744 60.1857 5.168 60.4257 5.76C60.6737 6.352 60.7977 7.144 60.7977 8.136C60.7977 9.12 60.6737 9.908 60.4257 10.5C60.1857 11.084 59.8737 11.508 59.4897 11.772C59.1137 12.028 58.7137 12.156 58.2897 12.156C57.8657 12.156 57.4577 12.028 57.0657 11.772C56.6817 11.508 56.3697 11.084 56.1297 10.5C55.8897 9.908 55.7697 9.12 55.7697 8.136C55.7697 7.144 55.8897 6.352 56.1297 5.76C56.3697 5.168 56.6817 4.744 57.0657 4.488C57.4577 4.224 57.8657 4.092 58.2897 4.092Z" fill="#555555"/>
<path d="M581.596 8.136C581.596 9.064 581.66 9.78 581.788 10.284C581.924 10.788 582.1 11.136 582.316 11.328C582.532 11.52 582.764 11.616 583.012 11.616C583.252 11.616 583.476 11.52 583.684 11.328C583.9 11.128 584.072 10.776 584.2 10.272C584.336 9.768 584.404 9.056 584.404 8.136C584.404 7.2 584.336 6.48 584.2 5.976C584.072 5.472 583.9 5.124 583.684 4.932C583.476 4.732 583.252 4.632 583.012 4.632C582.828 4.632 582.648 4.684 582.472 4.788C582.304 4.892 582.152 5.072 582.016 5.328C581.888 5.584 581.784 5.94 581.704 6.396C581.632 6.852 581.596 7.432 581.596 8.136ZM583.012 4.092C583.436 4.092 583.836 4.224 584.212 4.488C584.596 4.744 584.908 5.168 585.148 5.76C585.396 6.352 585.52 7.144 585.52 8.136C585.52 9.12 585.396 9.908 585.148 10.5C584.908 11.084 584.596 11.508 584.212 11.772C583.836 12.028 583.436 12.156 583.012 12.156C582.588 12.156 582.18 12.028 581.788 11.772C581.404 11.508 581.092 11.084 580.852 10.5C580.612 9.908 580.492 9.12 580.492 8.136C580.492 7.144 580.612 6.352 580.852 5.76C581.092 5.168 581.404 4.744 581.788 4.488C582.18 4.224 582.588 4.092 583.012 4.092ZM588.508 12V11.22C588.828 10.908 589.136 10.6 589.432 10.296C589.736 9.984 590.016 9.692 590.272 9.42C590.872 8.788 591.312 8.216 591.592 7.704C591.872 7.192 592.012 6.704 592.012 6.24C592.012 5.744 591.88 5.352 591.616 5.064C591.36 4.776 591.012 4.632 590.572 4.632C590.492 4.632 590.4 4.636 590.296 4.644C590.2 4.652 590.096 4.668 589.984 4.692L589.756 5.52C589.676 5.816 589.58 6.028 589.468 6.156C589.364 6.276 589.228 6.336 589.06 6.336C588.796 6.336 588.592 6.208 588.448 5.952C588.496 5.528 588.636 5.18 588.868 4.908C589.1 4.628 589.392 4.424 589.744 4.296C590.096 4.16 590.472 4.092 590.872 4.092C591.648 4.092 592.212 4.284 592.564 4.668C592.916 5.044 593.092 5.532 593.092 6.132C593.092 6.484 593.02 6.828 592.876 7.164C592.74 7.492 592.5 7.864 592.156 8.28C591.812 8.688 591.332 9.188 590.716 9.78C590.556 9.94 590.36 10.128 590.128 10.344C589.904 10.56 589.668 10.784 589.42 11.016H593.44V12H588.508ZM597.64 7.8C597.4 7.8 597.196 7.716 597.028 7.548C596.868 7.38 596.788 7.18 596.788 6.948C596.788 6.708 596.868 6.504 597.028 6.336C597.196 6.168 597.4 6.084 597.64 6.084C597.88 6.084 598.08 6.168 598.24 6.336C598.408 6.504 598.492 6.708 598.492 6.948C598.492 7.18 598.408 7.38 598.24 7.548C598.08 7.716 597.88 7.8 597.64 7.8ZM597.64 12.156C597.4 12.156 597.196 12.072 597.028 11.904C596.868 11.736 596.788 11.536 596.788 11.304C596.788 11.064 596.868 10.86 597.028 10.692C597.196 10.524 597.4 10.44 597.64 10.44C597.88 10.44 598.08 10.524 598.24 10.692C598.408 10.86 598.492 11.064 598.492 11.304C598.492 11.536 598.408 11.736 598.24 11.904C598.08 12.072 597.88 12.156 597.64 12.156ZM607.166 9.684H605.906V12H604.91V9.684H601.646V9.048L605.21 4.14H605.906V8.928H607.166V9.684ZM602.366 8.928H604.91V5.388L602.366 8.928ZM614.774 9.588C614.774 10.1 614.658 10.548 614.426 10.932C614.194 11.316 613.866 11.616 613.442 11.832C613.026 12.048 612.538 12.156 611.978 12.156C610.738 12.156 609.99 11.592 609.734 10.464C609.838 10.192 610.042 10.056 610.346 10.056C610.53 10.056 610.67 10.112 610.766 10.224C610.87 10.336 610.962 10.552 611.042 10.872L611.21 11.52C611.33 11.552 611.446 11.576 611.558 11.592C611.678 11.608 611.79 11.616 611.894 11.616C612.486 11.616 612.934 11.444 613.238 11.1C613.542 10.748 613.694 10.284 613.694 9.708C613.694 9.108 613.526 8.652 613.19 8.34C612.854 8.02 612.398 7.86 611.822 7.86C611.478 7.86 611.11 7.904 610.718 7.992L610.382 7.896L610.634 4.248H614.558V5.232H611.162L611.018 7.272C611.378 7.176 611.754 7.128 612.146 7.128C612.93 7.128 613.562 7.34 614.042 7.764C614.53 8.18 614.774 8.788 614.774 9.588Z" fill="#555555"/>
<path d="M14.02 7.83109V8.18796C14.019 8.5277 13.84 8.84207 13.5484 9.01641L2.14123 15.6568C1.45298 16.0646 1.09611 16.0646 0.790217 15.8862L0.471581 15.7078C0.187606 15.5382 0.00979338 15.2354 0 14.9048V1.11424C0.00103072 0.774497 0.179979 0.460128 0.471581 0.285787L0.790217 0.107351C1.09611 -0.0710855 1.45298 -0.0710855 2.34516 0.451477L13.5484 7.00263C13.84 7.17697 14.019 7.49134 14.02 7.83109Z" fill="#222222"/>
<rect x="70" y="5" width="499" height="7" rx="2" fill="#F5F5F7"/>
<rect x="70" y="5" width="136" height="7" rx="2" fill="#222222"/>
<path fill-rule="evenodd" clip-rule="evenodd" d="M633.759 0.875V13.125C633.759 13.6082 633.367 14 632.883 14H632.366C632.137 13.999 631.916 13.9079 631.753 13.7463L628.399 10.395C627.906 9.90258 627.238 9.62561 626.542 9.625C625.69 9.625 625 8.93552 625 8.085V5.915C625 5.06448 625.69 4.375 626.542 4.375C627.238 4.37439 627.906 4.09742 628.399 3.605L631.753 0.25375C631.916 0.0920988 632.137 0.000966549 632.366 0H632.883C633.367 0 633.759 0.391751 633.759 0.875ZM639.014 2.38876C638.93 2.30357 638.818 2.25088 638.699 2.24001C638.577 2.23691 638.46 2.28445 638.375 2.37126L637.753 2.99251C637.597 3.16032 637.597 3.41971 637.753 3.58751C639.435 5.55219 639.435 8.44783 637.753 10.4125C637.597 10.5803 637.597 10.8397 637.753 11.0075L638.375 11.6288C638.46 11.7156 638.577 11.7631 638.699 11.76C638.819 11.7507 638.931 11.6978 639.014 11.6113C641.328 8.97153 641.328 5.0285 639.014 2.38876ZM635.905 4.85632C635.996 4.76768 636.12 4.72024 636.247 4.72507C636.373 4.74 636.489 4.8026 636.571 4.90007C637.505 6.14451 637.505 7.85562 636.571 9.10007C636.491 9.19811 636.373 9.25835 636.247 9.26632C636.121 9.27453 635.997 9.23017 635.905 9.14382L635.283 8.51382C635.134 8.36814 635.108 8.13744 635.222 7.96257C635.607 7.37854 635.607 6.6216 635.222 6.03757C635.108 5.8627 635.134 5.632 635.283 5.48632L635.905 4.85632Z" fill="#222222"/>
<path fill-rule="evenodd" clip-rule="evenodd" d="M663.123 10.7071C663.007 10.7071 662.896 10.662 662.817 10.5823L657.751 5.81411C657.668 5.73679 657.621 5.63155 657.621 5.52175C657.621 5.41196 657.668 5.30672 657.751 5.2294L657.926 5.0647C658.008 4.98427 658.122 4.93955 658.241 4.94117H660.498V0.411764C660.498 0.184353 660.694 0 660.935 0H665.31C665.552 0 665.748 0.184353 665.748 0.411764V4.94117H668.005C668.124 4.93955 668.238 4.98427 668.32 5.0647L668.495 5.2294C668.578 5.30672 668.625 5.41196 668.625 5.52175C668.625 5.63155 668.578 5.73679 668.495 5.81411L663.429 10.5823C663.35 10.662 663.239 10.7071 663.123 10.7071ZM669.25 13.5882V12.7647C669.25 12.5373 669.054 12.3529 668.812 12.3529H657.437C657.196 12.3529 657 12.5373 657 12.7647V13.5882C657 13.8156 657.196 14 657.437 14H668.812C669.054 14 669.25 13.8156 669.25 13.5882Z" fill="#222222"/>
</svg>
