<svg width="24" height="24" viewBox="0 0 24 24" fill="none" xmlns="http://www.w3.org/2000/svg">
<path d="M18.6213 4.17393C18.1659 4.78129 17.6155 5.3111 16.9913 5.7429C16.9913 5.90156 16.9913 6.06022 16.9913 6.22769C16.9964 9.10894 15.8455 11.8717 13.7967 13.8966C11.7479 15.9215 8.97265 17.0391 6.09304 16.999C4.42828 17.0045 2.78483 16.6244 1.29144 15.8883C1.21092 15.8532 1.15898 15.7735 1.15929 15.6856V15.5886C1.15929 15.4621 1.26185 15.3595 1.38836 15.3595C3.02478 15.3055 4.60282 14.7382 5.89922 13.7376C4.41803 13.7078 3.08533 12.8303 2.47202 11.4811C2.44104 11.4074 2.45069 11.3229 2.49747 11.2581C2.54426 11.1933 2.62142 11.1575 2.70109 11.1638C3.15125 11.209 3.60592 11.1671 4.04025 11.0404C2.40514 10.701 1.17654 9.34352 1.0007 7.68208C0.994454 7.60238 1.03017 7.52518 1.09495 7.47837C1.15973 7.43156 1.24421 7.42191 1.31787 7.4529C1.75667 7.64652 2.23034 7.7485 2.7099 7.75259C1.27715 6.81221 0.658302 5.02358 1.20334 3.39825C1.2596 3.24032 1.39477 3.12365 1.55917 3.09111C1.72357 3.05858 1.89295 3.11498 2.00507 3.23959C3.93847 5.29731 6.59499 6.52349 9.41451 6.6596C9.34229 6.37142 9.30677 6.07525 9.30879 5.77816C9.33516 4.22032 10.2991 2.83256 11.7492 2.26458C13.1994 1.69661 14.8488 2.06082 15.9253 3.18671C16.6591 3.04692 17.3685 2.80044 18.031 2.45511C18.0795 2.42481 18.141 2.42481 18.1895 2.45511C18.2198 2.50366 18.2198 2.56522 18.1895 2.61377C17.8687 3.34854 17.3266 3.96482 16.6389 4.37666C17.2411 4.30683 17.8327 4.16477 18.401 3.95357C18.4488 3.921 18.5117 3.921 18.5596 3.95357C18.5997 3.9719 18.6296 4.00697 18.6415 4.04943C18.6534 4.09189 18.646 4.13743 18.6213 4.17393Z" fill="#222222"/>
</svg>
